<?xml version="1.0" encoding="UTF-8"?>
<svg width="64px" height="64px" viewBox="0 0 64 64" version="1.1" xmlns="http://www.w3.org/2000/svg" xmlns:xlink="http://www.w3.org/1999/xlink">
    <!-- Generator: Sketch 51.1 (57501) - http://www.bohemiancoding.com/sketch -->
    <title>icons/bell</title>
    <desc>Created with Sketch.</desc>
    <defs></defs>
    <g id="icons/bell" stroke="none" stroke-width="1" fill="none" fill-rule="evenodd">
        <path d="M31.8675738,53 C26.6175738,53 24.8675738,47.1666667 24.8675738,47.1666667 C24.8675738,47.1666667 21.3675738,47.1666667 14.3675738,47.1666667 C11.8849299,47.1666667 11.4509071,44.8333333 12.6175738,43.6666667 C13.1397926,42.3444077 14.6610273,41.0398798 16.1175738,39.5833333 C16.1175738,19.75 23.7009071,19.1666667 26.6175738,16.8333333 C26.6175738,11.5833333 30.1175738,11 31.8675738,11 C33.6175738,11 37.1175738,11.5833333 37.1175738,16.8333333 C40.0342404,19.1666667 47.6175738,19.75 47.6175738,39.5833333 C49.0741203,41.0398798 50.595355,42.3444077 51.1175738,43.6666667 C52.2842404,44.8333333 51.8502176,47.1666667 49.3675738,47.1666667 C42.3675738,47.1666667 38.8675738,47.1666667 38.8675738,47.1666667 C38.8675738,47.1666667 37.1175738,53 31.8675738,53 Z" id="Combined-Shape" stroke="#333333" stroke-width="4"></path>
    </g>
</svg>